<svg width="20" height="21" viewBox="0 0 20 21" fill="none" xmlns="http://www.w3.org/2000/svg">
<path d="M12.975 10.4695C13.688 9.86109 14.1974 9.04865 14.4344 8.14175C14.6714 7.23484 14.6246 6.27707 14.3004 5.39757C13.9761 4.51807 13.39 3.75913 12.6211 3.22306C11.8521 2.687 10.9373 2.3996 9.99996 2.3996C9.0626 2.3996 8.14777 2.687 7.37882 3.22306C6.60987 3.75913 6.02377 4.51807 5.69954 5.39757C5.37531 6.27707 5.32854 7.23484 5.56554 8.14175C5.80253 9.04865 6.3119 9.86109 7.02496 10.4695C5.45018 11.0714 4.09498 12.1367 3.13831 13.5249C2.18164 14.913 1.66849 16.5587 1.66663 18.2445C1.66663 18.4655 1.75442 18.6775 1.9107 18.8338C2.06698 18.9901 2.27895 19.0779 2.49996 19.0779C2.72097 19.0779 2.93293 18.9901 3.08922 18.8338C3.2455 18.6775 3.33329 18.4655 3.33329 18.2445C3.33329 16.4764 4.03567 14.7807 5.28591 13.5305C6.53616 12.2802 8.23185 11.5779 9.99996 11.5779C11.7681 11.5779 13.4638 12.2802 14.714 13.5305C15.9643 14.7807 16.6666 16.4764 16.6666 18.2445C16.6666 18.4655 16.7544 18.6775 16.9107 18.8338C17.067 18.9901 17.2789 19.0779 17.5 19.0779C17.721 19.0779 17.9329 18.9901 18.0892 18.8338C18.2455 18.6775 18.3333 18.4655 18.3333 18.2445C18.3314 16.5587 17.8183 14.913 16.8616 13.5249C15.9049 12.1367 14.5497 11.0714 12.975 10.4695V10.4695ZM9.99996 9.91119C9.4231 9.91119 8.85919 9.74013 8.37955 9.41964C7.8999 9.09915 7.52607 8.64363 7.30531 8.11068C7.08456 7.57773 7.0268 6.99129 7.13934 6.42551C7.25188 5.85973 7.52966 5.34003 7.93757 4.93213C8.34547 4.52422 8.86517 4.24644 9.43095 4.1339C9.99673 4.02136 10.5832 4.07912 11.1161 4.29987C11.6491 4.52063 12.1046 4.89447 12.4251 5.37411C12.7456 5.85375 12.9166 6.41766 12.9166 6.99452C12.9166 7.76807 12.6093 8.50994 12.0624 9.05692C11.5154 9.6039 10.7735 9.91119 9.99996 9.91119V9.91119Z" fill="white"/>
</svg>
