<svg width="20" height="21" viewBox="0 0 20 21" fill="none" xmlns="http://www.w3.org/2000/svg">
<path d="M2.5 7.41117V17.4112C2.5 17.6322 2.5878 17.8441 2.74408 18.0004C2.90036 18.1567 3.11232 18.2445 3.33333 18.2445H7.5C7.72101 18.2445 7.93297 18.1567 8.08925 18.0004C8.24554 17.8441 8.33333 17.6322 8.33333 17.4112V11.5778H11.6667V17.4112C11.6667 17.6322 11.7545 17.8441 11.9107 18.0004C12.067 18.1567 12.279 18.2445 12.5 18.2445H16.6667C16.8877 18.2445 17.0996 18.1567 17.2559 18.0004C17.4122 17.8441 17.5 17.6322 17.5 17.4112V7.41117C17.5 7.2818 17.4699 7.1542 17.412 7.03849C17.3542 6.92278 17.2702 6.82213 17.1667 6.7445L10.5 1.7445C10.3558 1.63632 10.1803 1.57784 10 1.57784C9.81969 1.57784 9.64425 1.63632 9.5 1.7445L2.83333 6.7445C2.72984 6.82213 2.64583 6.92278 2.58798 7.03849C2.53012 7.1542 2.5 7.2818 2.5 7.41117V7.41117ZM4.16667 7.82784L10 3.45284L15.8333 7.82784V16.5778H13.3333V10.7445C13.3333 10.5235 13.2455 10.3115 13.0893 10.1552C12.933 9.99897 12.721 9.91117 12.5 9.91117H7.5C7.27899 9.91117 7.06702 9.99897 6.91074 10.1552C6.75446 10.3115 6.66667 10.5235 6.66667 10.7445V16.5778H4.16667V7.82784Z" fill="white"/>
</svg>
