<svg width="20" height="21" viewBox="0 0 20 21" fill="none" xmlns="http://www.w3.org/2000/svg">
<path d="M10.5417 2.61135C10.3908 2.48226 10.1987 2.41133 10 2.41135H4.16671C3.94569 2.41135 3.73373 2.49914 3.57745 2.65542C3.42117 2.8117 3.33337 3.02367 3.33337 3.24468V18.2447C3.33337 18.4657 3.42117 18.6777 3.57745 18.8339C3.73373 18.9902 3.94569 19.078 4.16671 19.078H15.8334C16.0544 19.078 16.2664 18.9902 16.4226 18.8339C16.5789 18.6777 16.6667 18.4657 16.6667 18.2447V8.24468C16.6667 8.12431 16.6406 8.00537 16.5903 7.89604C16.5399 7.78671 16.4665 7.68959 16.375 7.61135L10.5417 2.61135ZM10.8334 5.05301L13.5834 7.41135H10.8334V5.05301ZM15 17.4113H5.00004V4.07801H9.16671V8.24468C9.16671 8.46569 9.25451 8.67766 9.41079 8.83394C9.56707 8.99022 9.77903 9.07801 10 9.07801H15V17.4113Z" fill="white"/>
</svg>
