<svg width="20" height="21" viewBox="0 0 20 21" fill="none" xmlns="http://www.w3.org/2000/svg">
<path d="M10.5417 2.61135C10.3908 2.48226 10.1987 2.41133 10 2.41135H4.16671C3.94569 2.41135 3.73373 2.49914 3.57745 2.65542C3.42117 2.8117 3.33337 3.02367 3.33337 3.24468V18.2447C3.33337 18.4657 3.42117 18.6777 3.57745 18.8339C3.73373 18.9902 3.94569 19.078 4.16671 19.078H15.8334C16.0544 19.078 16.2664 18.9902 16.4226 18.8339C16.5789 18.6777 16.6667 18.4657 16.6667 18.2447V8.24468C16.6667 8.12431 16.6406 8.00537 16.5903 7.89604C16.5399 7.78671 16.4665 7.68959 16.375 7.61135L10.5417 2.61135ZM10.8334 5.05301L13.5834 7.41135H10.8334V5.05301ZM15 17.4113H5.00004V4.07801H9.16671V8.24468C9.16671 8.46569 9.25451 8.67766 9.41079 8.83394C9.56707 8.99022 9.77903 9.07801 10 9.07801H15V17.4113Z" fill="white"/>
<path fill-rule="evenodd" clip-rule="evenodd" d="M9.58511 16.2553C9.36785 16.2553 9.1825 16.094 9.14712 15.8742C9.11454 15.6963 8.98967 15.5509 8.82172 15.4954C8.68486 15.4472 8.55104 15.3904 8.42105 15.3252C8.26636 15.2441 8.08079 15.2562 7.9374 15.3568C7.76387 15.4848 7.5255 15.465 7.37433 15.31L6.78637 14.707C6.62813 14.5447 6.60757 14.2888 6.73777 14.1021C6.83817 13.9517 6.85264 13.7577 6.7757 13.5933C6.72501 13.4792 6.68029 13.3623 6.64175 13.2432C6.58654 13.0555 6.43417 12.915 6.24641 12.8784C6.01999 12.8413 5.85284 12.6419 5.85108 12.4067V11.6523C5.84988 11.3812 6.04077 11.1494 6.30154 11.1052C6.49936 11.0666 6.66454 10.9276 6.74014 10.7362C6.76266 10.6823 6.78637 10.6288 6.81126 10.5757C6.9118 10.3772 6.89791 10.1381 6.7751 9.9532C6.62153 9.73428 6.64511 9.4335 6.83082 9.24256L7.2629 8.7994C7.47601 8.58075 7.81211 8.55245 8.05713 8.73253L8.07076 8.74226C8.25372 8.86856 8.48653 8.89143 8.68954 8.80305C8.90672 8.72287 9.06682 8.53146 9.11095 8.2991L9.11691 8.27843C9.16566 7.97081 9.42469 7.74482 9.72858 7.74469H10.2502C10.5622 7.74454 10.8285 7.97604 10.8796 8.2918L10.8891 8.33435C10.9309 8.55695 11.0827 8.74118 11.2897 8.82068C11.4892 8.9085 11.7187 8.88556 11.8979 8.75989L11.9275 8.738C12.1788 8.55219 12.5245 8.58077 12.7437 8.80548L13.1413 9.21399C13.3407 9.41956 13.3657 9.74282 13.2006 9.97812C13.0712 10.1748 13.0548 10.4275 13.1573 10.6401L13.1829 10.7009C13.2659 10.9085 13.4457 11.059 13.6605 11.1009C13.9415 11.1479 14.148 11.3963 14.1489 11.6882V12.3647C14.1489 12.6221 13.9674 12.8417 13.7198 12.8839C13.5162 12.924 13.3504 13.0751 13.2877 13.2778C13.2601 13.3588 13.2292 13.4399 13.1953 13.521C13.1162 13.6991 13.1337 13.9066 13.2415 14.0681C13.3837 14.271 13.3616 14.5497 13.1894 14.7264L12.6376 15.293C12.4798 15.4548 12.2309 15.4757 12.0496 15.3423C11.8982 15.2362 11.7022 15.2245 11.5399 15.3119C11.4242 15.3706 11.3055 15.4228 11.1843 15.4681C11.0147 15.5281 10.8897 15.6769 10.8571 15.8578C10.8225 16.0853 10.6323 16.2536 10.4078 16.2553H9.58511Z" stroke="white" stroke-linecap="round" stroke-linejoin="round"/>
<path fill-rule="evenodd" clip-rule="evenodd" d="M11.3828 12C11.3828 12.7833 10.7637 13.4183 10 13.4183C9.23632 13.4183 8.61725 12.7833 8.61725 12C8.61725 11.2167 9.23632 10.5818 10 10.5818C10.7637 10.5818 11.3828 11.2167 11.3828 12Z" stroke="white" stroke-linecap="round" stroke-linejoin="round"/>
</svg>
