<svg width="20" height="21" viewBox="0 0 20 21" fill="none" xmlns="http://www.w3.org/2000/svg">
<path d="M17.5 16.578H4.16667V3.24471C4.16667 3.0237 4.07887 2.81173 3.92259 2.65545C3.76631 2.49917 3.55435 2.41138 3.33333 2.41138C3.11232 2.41138 2.90036 2.49917 2.74408 2.65545C2.5878 2.81173 2.5 3.0237 2.5 3.24471V17.4114C2.5 17.6324 2.5878 17.8444 2.74408 18.0006C2.90036 18.1569 3.11232 18.2447 3.33333 18.2447H17.5C17.721 18.2447 17.933 18.1569 18.0893 18.0006C18.2455 17.8444 18.3333 17.6324 18.3333 17.4114C18.3333 17.1904 18.2455 16.9784 18.0893 16.8221C17.933 16.6658 17.721 16.578 17.5 16.578Z" fill="white"/>
<path d="M5.83337 9.91134V14.078C5.83337 14.299 5.92117 14.511 6.07745 14.6673C6.23373 14.8235 6.44569 14.9113 6.66671 14.9113C6.88772 14.9113 7.09968 14.8235 7.25596 14.6673C7.41224 14.511 7.50004 14.299 7.50004 14.078V9.91134C7.50004 9.69032 7.41224 9.47836 7.25596 9.32208C7.09968 9.1658 6.88772 9.078 6.66671 9.078C6.44569 9.078 6.23373 9.1658 6.07745 9.32208C5.92117 9.47836 5.83337 9.69032 5.83337 9.91134Z" fill="white"/>
<path d="M9.16663 5.74471V14.078C9.16663 14.2991 9.25442 14.511 9.4107 14.6673C9.56698 14.8236 9.77895 14.9114 9.99996 14.9114C10.221 14.9114 10.4329 14.8236 10.5892 14.6673C10.7455 14.511 10.8333 14.2991 10.8333 14.078V5.74471C10.8333 5.5237 10.7455 5.31174 10.5892 5.15545C10.4329 4.99917 10.221 4.91138 9.99996 4.91138C9.77895 4.91138 9.56698 4.99917 9.4107 5.15545C9.25442 5.31174 9.16663 5.5237 9.16663 5.74471Z" fill="white"/>
<path d="M12.5 7.41134V14.078C12.5 14.299 12.5878 14.511 12.7441 14.6673C12.9004 14.8235 13.1123 14.9113 13.3333 14.9113C13.5543 14.9113 13.7663 14.8235 13.9226 14.6673C14.0789 14.511 14.1667 14.299 14.1667 14.078V7.41134C14.1667 7.19032 14.0789 6.97836 13.9226 6.82208C13.7663 6.6658 13.5543 6.578 13.3333 6.578C13.1123 6.578 12.9004 6.6658 12.7441 6.82208C12.5878 6.97836 12.5 7.19032 12.5 7.41134Z" fill="white"/>
<path d="M15.8334 3.24471V14.078C15.8334 14.2991 15.9212 14.511 16.0775 14.6673C16.2337 14.8236 16.4457 14.9114 16.6667 14.9114C16.8877 14.9114 17.0997 14.8236 17.256 14.6673C17.4122 14.511 17.5 14.2991 17.5 14.078V3.24471C17.5 3.0237 17.4122 2.81173 17.256 2.65545C17.0997 2.49917 16.8877 2.41138 16.6667 2.41138C16.4457 2.41138 16.2337 2.49917 16.0775 2.65545C15.9212 2.81173 15.8334 3.0237 15.8334 3.24471V3.24471Z" fill="white"/>
</svg>
