<svg width="28" height="28" viewBox="0 0 28 28" fill="none" xmlns="http://www.w3.org/2000/svg">
<path d="M14 9.625C13.1347 9.625 12.2888 9.88159 11.5694 10.3623C10.8499 10.8431 10.2892 11.5263 9.95803 12.3258C9.6269 13.1252 9.54026 14.0048 9.70907 14.8535C9.87788 15.7022 10.2946 16.4817 10.9064 17.0936C11.5183 17.7054 12.2978 18.1221 13.1465 18.2909C13.9951 18.4597 14.8748 18.3731 15.6742 18.042C16.4737 17.7108 17.1569 17.1501 17.6377 16.4306C18.1184 15.7111 18.375 14.8653 18.375 14C18.3736 12.8401 17.9122 11.7281 17.0921 10.9079C16.2719 10.0877 15.1599 9.62637 14 9.625ZM14 16.625C13.4808 16.625 12.9733 16.471 12.5416 16.1826C12.1099 15.8942 11.7735 15.4842 11.5748 15.0045C11.3761 14.5249 11.3242 13.9971 11.4254 13.4879C11.5267 12.9787 11.7767 12.511 12.1438 12.1438C12.511 11.7767 12.9787 11.5267 13.4879 11.4254C13.9971 11.3241 14.5249 11.3761 15.0045 11.5748C15.4842 11.7735 15.8942 12.1099 16.1826 12.5416C16.471 12.9733 16.625 13.4808 16.625 14C16.6242 14.696 16.3474 15.3632 15.8553 15.8553C15.3632 16.3474 14.696 16.6242 14 16.625Z" fill="#FF5B5B"/>
<path d="M5.48931 8.55984C5.05905 8.39819 4.58279 8.41025 4.16126 8.59347C3.73974 8.77669 3.40602 9.1167 3.2307 9.54157C3.05538 9.96644 3.0522 10.4428 3.22185 10.87C3.3915 11.2972 3.72066 11.6416 4.13971 11.8304C4.56601 12.0107 4.92974 12.3126 5.18546 12.6985C5.44118 13.0843 5.57756 13.5369 5.57756 13.9998C5.57756 14.4626 5.44118 14.9152 5.18546 15.3011C4.92974 15.6869 4.56601 15.9888 4.13971 16.1691C3.72056 16.3579 3.39132 16.7024 3.22165 17.1297C3.05198 17.5569 3.05519 18.0334 3.2306 18.4583C3.40602 18.8833 3.73988 19.2233 4.16153 19.4064C4.58318 19.5896 5.05955 19.6015 5.48983 19.4397C5.91921 19.2648 6.39064 19.2205 6.84506 19.3124C7.29949 19.4042 7.71671 19.6281 8.04446 19.9561C8.3722 20.284 8.59591 20.7013 8.68754 21.1558C8.77918 21.6102 8.73467 22.0816 8.5596 22.5109C8.39271 22.9423 8.40307 23.4222 8.58842 23.846C8.77376 24.2698 9.11908 24.6032 9.54913 24.7736C9.7645 24.8627 9.99531 24.9086 10.2284 24.9086C10.5689 24.911 10.9026 24.8128 11.1875 24.6264C11.4724 24.4399 11.696 24.1735 11.8302 23.8605C12.0105 23.4342 12.3124 23.0705 12.6982 22.8148C13.084 22.559 13.5366 22.4227 13.9995 22.4227C14.4624 22.4227 14.915 22.559 15.3008 22.8148C15.6866 23.0705 15.9885 23.4342 16.1689 23.8605C16.3577 24.2797 16.7022 24.6089 17.1294 24.7786C17.5567 24.9483 18.0332 24.945 18.4581 24.7696C18.883 24.5942 19.223 24.2604 19.4062 23.8387C19.5893 23.4171 19.6013 22.9407 19.4394 22.5104C19.2646 22.081 19.2203 21.6096 19.3121 21.1552C19.404 20.7007 19.6279 20.2835 19.9558 19.9558C20.2837 19.628 20.701 19.4043 21.1555 19.3127C21.61 19.2211 22.0814 19.2656 22.5107 19.4406C22.9394 19.6071 23.4164 19.5982 23.8386 19.4158C24.2608 19.2334 24.5942 18.8923 24.767 18.4661L23.9646 18.1175L23.1683 17.8193C22.4205 17.5137 21.599 17.4361 20.8072 17.5962C20.0154 17.7563 19.2886 18.147 18.7182 18.719C18.1482 19.2936 17.7566 20.0208 17.5906 20.8129C17.4245 21.605 17.4912 22.4282 17.7824 23.1833C17.4703 22.4381 16.9446 21.8019 16.2715 21.3551C15.5984 20.9082 14.808 20.6706 14.0001 20.6723C13.1904 20.6748 12.3988 20.9119 11.721 21.355C11.0433 21.798 10.5085 22.428 10.1813 23.1687C10.4866 22.4208 10.5641 21.5994 10.404 20.8076C10.244 20.0158 9.85344 19.289 9.28156 18.7185C8.70694 18.1486 7.97978 17.7571 7.18769 17.591C6.39561 17.425 5.57241 17.4916 4.81731 17.7828C5.5625 17.4706 6.19857 16.9447 6.64534 16.2715C7.0921 15.5983 7.32956 14.8079 7.32777 14C7.32526 13.1903 7.08814 12.3987 6.64509 11.7209C6.20204 11.0432 5.57207 10.5084 4.8314 10.1812C5.57924 10.4867 6.40071 10.5643 7.19252 10.4042C7.98434 10.2441 8.71115 9.85349 9.28156 9.28145C9.85153 8.70688 10.2431 7.97971 10.4092 7.18761C10.5752 6.39551 10.5086 5.57229 10.2173 4.8172C10.5295 5.56239 11.0554 6.19846 11.7285 6.64523C12.4017 7.092 13.1921 7.32945 14.0001 7.32766C14.8098 7.32516 15.6014 7.08803 16.2791 6.64498C16.9569 6.20194 17.4917 5.57196 17.8188 4.83129C17.5135 5.57916 17.436 6.40059 17.5961 7.19236C17.7562 7.98413 18.1467 8.71094 18.7186 9.28145C19.2934 9.85113 20.0205 10.2425 20.8126 10.4085C21.6046 10.5746 22.4277 10.5081 23.1829 10.2172C22.4413 10.5287 21.8078 11.0517 21.3614 11.7208C20.9149 12.3899 20.6753 13.1757 20.6724 13.98C20.6695 14.7844 20.9034 15.5719 21.345 16.2442C21.7865 16.9166 22.4162 17.4441 23.1556 17.761C23.158 17.7682 23.158 17.776 23.1556 17.7832L23.9643 18.1169L24.7684 18.4617L24.7731 18.4506C24.9517 18.0268 24.9561 17.5498 24.7852 17.1228C24.6144 16.6959 24.2821 16.3535 23.8605 16.17C23.4342 15.9897 23.0704 15.6877 22.8147 15.3019C22.559 14.9161 22.4226 14.4635 22.4226 14.0006C22.4226 13.5378 22.559 13.0852 22.8147 12.6993C23.0704 12.3135 23.4342 12.0116 23.8605 11.8313C24.2796 11.6425 24.6088 11.298 24.7785 10.8707C24.9482 10.4435 24.945 9.96697 24.7696 9.54204C24.5941 9.11711 24.2603 8.7771 23.8386 8.59395C23.417 8.4108 22.9406 8.39888 22.5103 8.56071C22.081 8.73558 21.6095 8.77986 21.1551 8.688C20.7007 8.59615 20.2835 8.37224 19.9557 8.04434C19.628 7.71643 19.4043 7.2991 19.3126 6.84463C19.221 6.39016 19.2655 5.91875 19.4406 5.48946C19.6023 5.0592 19.5904 4.58287 19.4072 4.16127C19.224 3.73967 18.884 3.40587 18.4591 3.2305C18.0342 3.05512 17.5578 3.05193 17.1305 3.2216C16.7033 3.39127 16.3589 3.72049 16.1701 4.1396C15.9898 4.56591 15.6879 4.92963 15.302 5.18536C14.9162 5.44108 14.4636 5.57745 14.0007 5.57745C13.5379 5.57745 13.0853 5.44108 12.6994 5.18536C12.3136 4.92963 12.0117 4.56591 11.8314 4.1396C11.6426 3.72046 11.2981 3.39121 10.8708 3.22154C10.4436 3.05187 9.96708 3.05508 9.54215 3.2305C9.11722 3.40591 8.77721 3.73977 8.59406 4.16142C8.41091 4.58307 8.39899 5.05944 8.56082 5.48973C8.73569 5.9191 8.77997 6.39053 8.68811 6.84496C8.59625 7.29938 8.37235 7.7166 8.04444 8.04435C7.71654 8.3721 7.29921 8.5958 6.84474 8.68743C6.39027 8.77907 5.91886 8.73456 5.48957 8.55949L5.48931 8.55984Z" fill="#FF5B5B"/>
</svg>
