<svg width="85" height="86" viewBox="0 0 85 86" fill="none" xmlns="http://www.w3.org/2000/svg">
<ellipse opacity="0.1" cx="42.1554" cy="43" rx="42.1554" ry="42.5" fill="#182996"/>
<path d="M57.0125 21.8363C58.2118 21.8364 59.1833 22.8088 59.1833 24.0081V51.1517C59.1831 52.3509 58.2116 53.3225 57.0125 53.3226H15.9373C14.738 53.3226 13.7656 52.3509 13.7654 51.1517V24.0081C13.7654 22.8087 14.7378 21.8363 15.9373 21.8363H57.0125Z" fill="#00B074"/>
<path d="M29.5584 43.0794C29.4557 43.0794 29.3904 43.0328 29.3624 42.9394L28.9984 41.6934C28.9797 41.6561 28.9564 41.6374 28.9284 41.6374H25.7364C25.7084 41.6374 25.685 41.6561 25.6664 41.6934L25.3024 42.9394C25.2744 43.0328 25.209 43.0794 25.1064 43.0794H22.9644C22.9084 43.0794 22.8664 43.0654 22.8384 43.0374C22.8104 43.0001 22.8057 42.9488 22.8244 42.8834L25.8204 33.4194C25.8484 33.3261 25.909 33.2794 26.0024 33.2794H28.6484C28.7417 33.2794 28.8024 33.3261 28.8304 33.4194L31.8404 42.8834C31.8497 42.9021 31.8544 42.9254 31.8544 42.9534C31.8544 43.0374 31.803 43.0794 31.7004 43.0794H29.5584ZM26.2264 39.7614C26.217 39.8174 26.2357 39.8454 26.2824 39.8454H28.3684C28.4244 39.8454 28.443 39.8174 28.4244 39.7614L27.3604 36.1634C27.351 36.1261 27.337 36.1121 27.3184 36.1214C27.2997 36.1214 27.2857 36.1354 27.2764 36.1634L26.2264 39.7614ZM39.8391 35.0994C39.8391 35.1461 39.8204 35.1881 39.7831 35.2254C39.7551 35.2534 39.7177 35.2674 39.6711 35.2674H35.2751C35.2284 35.2674 35.2051 35.2908 35.2051 35.3374V37.0594C35.2051 37.1061 35.2284 37.1294 35.2751 37.1294H38.0891C38.1357 37.1294 38.1731 37.1481 38.2011 37.1854C38.2384 37.2134 38.2571 37.2508 38.2571 37.2974V38.9354C38.2571 38.9821 38.2384 39.0241 38.2011 39.0614C38.1731 39.0894 38.1357 39.1034 38.0891 39.1034H35.2751C35.2284 39.1034 35.2051 39.1268 35.2051 39.1734V41.0214C35.2051 41.0681 35.2284 41.0914 35.2751 41.0914H39.6711C39.7177 41.0914 39.7551 41.1101 39.7831 41.1474C39.8204 41.1754 39.8391 41.2128 39.8391 41.2594V42.9114C39.8391 42.9581 39.8204 43.0001 39.7831 43.0374C39.7551 43.0654 39.7177 43.0794 39.6711 43.0794H33.0491C33.0024 43.0794 32.9604 43.0654 32.9231 43.0374C32.8951 43.0001 32.8811 42.9581 32.8811 42.9114V33.4474C32.8811 33.4008 32.8951 33.3634 32.9231 33.3354C32.9604 33.2981 33.0024 33.2794 33.0491 33.2794H39.6711C39.7177 33.2794 39.7551 33.2981 39.7831 33.3354C39.8204 33.3634 39.8391 33.4008 39.8391 33.4474V35.0994ZM41.1291 43.0794C41.0825 43.0794 41.0405 43.0654 41.0031 43.0374C40.9751 43.0001 40.9611 42.9581 40.9611 42.9114V33.4474C40.9611 33.4008 40.9751 33.3634 41.0031 33.3354C41.0405 33.2981 41.0825 33.2794 41.1291 33.2794H44.6991C45.4271 33.2794 46.0711 33.4054 46.6311 33.6574C47.1911 33.9094 47.6251 34.2688 47.9331 34.7354C48.2411 35.2021 48.3951 35.7388 48.3951 36.3454V40.0134C48.3951 40.6201 48.2411 41.1568 47.9331 41.6234C47.6251 42.0901 47.1911 42.4494 46.6311 42.7014C46.0711 42.9534 45.4271 43.0794 44.6991 43.0794H41.1291ZM43.2851 41.0214C43.2851 41.0681 43.3085 41.0914 43.3551 41.0914H44.7971C45.1705 41.0914 45.4738 40.9608 45.7071 40.6994C45.9405 40.4288 46.0618 40.0694 46.0711 39.6214V36.7374C46.0711 36.2894 45.9498 35.9348 45.7071 35.6734C45.4738 35.4028 45.1658 35.2674 44.7831 35.2674H43.3551C43.3085 35.2674 43.2851 35.2908 43.2851 35.3374V41.0214Z" fill="white"/>
<path d="M69.313 32.6768H61.1075V51.1515C61.1075 53.4099 59.27 55.2475 57.0116 55.2475H26.0662V61.9919C26.0662 63.1914 27.0384 64.1637 28.2378 64.1637H69.313C70.5124 64.1637 71.4846 63.1914 71.4846 61.9919V34.8485C71.4846 33.6491 70.5124 32.6768 69.313 32.6768Z" fill="#0A5239"/>
<path opacity="0.1" d="M46.8162 56.5224C46.8162 58.4892 47.3251 60.3704 48.2157 61.9951H62.4227L61.5321 45.5769C60.4719 45.2349 59.3692 45.0639 58.2242 45.0639C51.9052 45.0639 46.8162 50.1946 46.8162 56.5224Z" fill="#0C1E5B"/>
<path d="M64.119 67.9809C70.3961 67.9809 75.4846 62.8508 75.4846 56.5224C75.4846 50.194 70.3961 45.0639 64.119 45.0639C57.842 45.0639 52.7534 50.194 52.7534 56.5224C52.7534 62.8508 57.842 67.9809 64.119 67.9809Z" fill="#FF6966"/>
<path d="M62.9315 60.9691C62.5922 60.9691 62.2953 60.8409 62.0409 60.5843L58.4361 56.9501C57.9272 56.437 57.9272 55.6247 58.4361 55.1544C58.945 54.6413 59.7508 54.6413 60.2173 55.1544L62.9315 57.8907L68.0206 52.76C68.5295 52.247 69.3353 52.247 69.8018 52.76C70.3107 53.2731 70.3107 54.0855 69.8018 54.5558L63.8221 60.5843C63.5676 60.8409 63.2284 60.9691 62.9315 60.9691Z" fill="white"/>
</svg>
