<svg width="85" height="86" viewBox="0 0 85 86" fill="none" xmlns="http://www.w3.org/2000/svg">
<ellipse opacity="0.1" cx="42.1554" cy="43" rx="42.1554" ry="42.5" fill="#182996"/>
<path d="M18.6519 64.7747C21.8187 64.7747 24.4063 62.1627 24.4063 58.966V21.541H58.0061V58.966C58.0061 62.1627 55.4185 64.7747 52.2516 64.7747" fill="#00B074"/>
<path d="M46.4972 58.9659V54.5607H12.8975V58.9659C12.8975 62.1626 15.485 64.7746 18.6519 64.7746H52.2517C49.0848 64.7746 46.4972 62.1626 46.4972 58.9659Z" fill="#0A5239"/>
<path d="M34.718 28.9868H30.4312V30.8581H34.718V28.9868Z" fill="#F7C604"/>
<path d="M51.2089 28.9868H38.0393V30.8581H51.2089V28.9868Z" fill="#F3F2F7"/>
<path d="M34.718 35.6142H30.4312V37.4854H34.718V35.6142Z" fill="#F7C604"/>
<path d="M51.2089 35.6142H38.0393V37.4854H51.2089V35.6142Z" fill="#F3F2F7"/>
<path d="M34.718 42.2417H30.4312V44.1129H34.718V42.2417Z" fill="#F7C604"/>
<path d="M51.2089 42.2417H38.0393V44.1129H51.2089V42.2417Z" fill="#F3F2F7"/>
<path d="M34.718 48.869H30.4312V50.7403H34.718V48.869Z" fill="#F7C604"/>
<path d="M51.2089 48.869H38.0393V50.7403H51.2089V48.869Z" fill="#F3F2F7"/>
<path opacity="0.1" d="M58.006 49.181V26.9209C57.5426 26.8429 57.0405 26.804 56.5385 26.804C50.3978 26.804 45.4158 31.8329 45.4158 38.0315C45.4158 44.23 50.3978 49.2589 56.5385 49.2589C57.0405 49.2979 57.5426 49.259 58.006 49.181Z" fill="#0C1E5B"/>
<path d="M60.4399 47.0371C66.5829 47.0371 71.5627 42.0103 71.5627 35.8094C71.5627 29.6086 66.5829 24.5818 60.4399 24.5818C54.297 24.5818 49.3171 29.6086 49.3171 35.8094C49.3171 42.0103 54.297 47.0371 60.4399 47.0371Z" fill="#FF5B5B"/>
<path d="M65.7109 36L66.418 35.2929L67.1252 36L66.418 36.7071L65.7109 36ZM54.9102 37C54.3579 37 53.9102 36.5523 53.9102 36C53.9102 35.4477 54.3579 35 54.9102 35L54.9102 36L54.9102 37ZM60.7109 31L61.418 30.2929L66.418 35.2929L65.7109 36L65.0038 36.7071L60.0038 31.7071L60.7109 31ZM65.7109 36L66.418 36.7071L61.418 41.7071L60.7109 41L60.0038 40.2929L65.0038 35.2929L65.7109 36ZM65.7109 36L65.7109 37L54.9102 37L54.9102 36L54.9102 35L65.7109 35L65.7109 36Z" fill="white"/>
</svg>
