<svg width="85" height="86" viewBox="0 0 85 86" fill="none" xmlns="http://www.w3.org/2000/svg">
<ellipse opacity="0.1" cx="42.1554" cy="43" rx="42.1554" ry="42.5" fill="#182996"/>
<path d="M35.9732 20.3311L12.6565 29.9495L35.9732 39.5679L59.2899 29.9495L35.9732 20.3311Z" fill="#00B074"/>
<path d="M26.5092 24.2553L22.1206 26.0251L45.4373 35.6819L49.7877 33.8737L26.5092 24.2553Z" fill="#F7C604"/>
<path d="M12.6565 29.9496V56.4578L35.9732 66.0762V39.5679L12.6565 29.9496Z" fill="#0A5239"/>
<path d="M59.2899 29.9496V56.4578L35.9731 66.0762V39.5679L59.2899 29.9496Z" fill="#00D68D"/>
<path opacity="0.1" d="M59.2898 43.4922C58.6029 43.3383 57.916 43.2614 57.1909 43.2614C51.543 43.2614 46.9636 47.8782 46.9636 53.5723C46.9636 56.227 47.9558 58.6508 49.5968 60.459L59.2898 56.4578V43.4922Z" fill="#0C1E5B"/>
<path d="M45.4373 35.682V46.8008L49.7877 44.9926V33.8737L45.4373 35.682Z" fill="#F7C604"/>
<path d="M61.3506 63.1137C66.999 63.1137 71.5779 58.4973 71.5779 52.8028C71.5779 47.1082 66.999 42.4919 61.3506 42.4919C55.7022 42.4919 51.1233 47.1082 51.1233 52.8028C51.1233 58.4973 55.7022 63.1137 61.3506 63.1137Z" fill="#FF5B5B"/>
<path d="M60.2821 56.804C59.9768 56.804 59.7097 56.6886 59.4807 56.4577L56.237 53.1875C55.7791 52.7258 55.7791 51.9948 56.237 51.5716C56.6949 51.1099 57.42 51.1099 57.8398 51.5716L60.2821 54.0339L64.8615 49.4171C65.3195 48.9554 66.0445 48.9554 66.4643 49.4171C66.9222 49.8788 66.9222 50.6098 66.4643 51.033L61.0835 56.4577C60.8546 56.6886 60.5874 56.804 60.2821 56.804Z" fill="white"/>
<path d="M20.2123 52.8798L17.6937 47.6474L15.3276 50.7637L16.6251 51.3408V54.7265L18.724 55.6883V52.2642L20.2123 52.8798Z" fill="#F2F5F3"/>
</svg>
