<svg width="25" height="24" viewBox="0 0 25 24" fill="none" xmlns="http://www.w3.org/2000/svg">
<path fill-rule="evenodd" clip-rule="evenodd" d="M12.4846 9C10.8277 9 9.48462 10.3431 9.48462 12C9.48462 13.6569 10.8277 15 12.4846 15C14.1415 15 15.4846 13.6569 15.4846 12C15.4846 10.3431 14.1415 9 12.4846 9ZM11.4846 12C11.4846 11.4477 11.9323 11 12.4846 11C13.0369 11 13.4846 11.4477 13.4846 12C13.4846 12.5523 13.0369 13 12.4846 13C11.9323 13 11.4846 12.5523 11.4846 12Z" fill="#464255"/>
<path fill-rule="evenodd" clip-rule="evenodd" d="M22.3146 11.2807C20.0266 7.15186 16.2968 5 12.4846 5C8.67239 5 4.94258 7.15186 2.65465 11.2807C2.43099 11.6844 2.42823 12.1821 2.64491 12.5876C4.89645 16.8013 8.64742 19 12.4846 19C16.3218 19 20.0728 16.8013 22.3243 12.5876C22.541 12.1821 22.5382 11.6844 22.3146 11.2807ZM12.4846 17C9.54559 17 6.52514 15.3724 4.57635 11.9487C6.55324 8.59614 9.55781 7 12.4846 7C15.4114 7 18.416 8.59614 20.3929 11.9487C18.4441 15.3724 15.4236 17 12.4846 17Z" fill="#464255"/>
</svg>
